<svg width="212" height="24" viewBox="0 0 212 24" fill="none" xmlns="http://www.w3.org/2000/svg">
<path d="M37.6035 5.22699C35.8375 5.22492 34.122 5.81279 32.7322 6.8963V1.38113H29.6826V13.0958C29.6805 14.6548 30.1435 16.1794 31.0129 17.4767C31.8824 18.7739 33.1193 19.7856 34.5671 20.3835C36.0149 20.9815 37.6086 21.1389 39.1464 20.8358C40.6842 20.5328 42.097 19.7829 43.2061 18.6811C44.3152 17.5793 45.0707 16.1751 45.377 14.6461C45.6833 13.1171 45.5267 11.5322 44.9269 10.0918C44.327 8.65142 43.311 7.42035 42.0074 6.55438C40.7038 5.68841 39.1712 5.22646 37.6035 5.22699ZM37.6035 17.9508C36.6395 17.9534 35.6963 17.6716 34.8935 17.1409C34.0906 16.6102 33.4642 15.8546 33.0934 14.9697C32.7227 14.0848 32.6243 13.1103 32.8107 12.1698C32.9971 11.2292 33.46 10.3648 34.1407 9.68596C34.8214 9.00714 35.6894 8.54443 36.6347 8.35643C37.58 8.16842 38.5601 8.26357 39.451 8.62982C40.3419 8.99607 41.1035 9.61695 41.6394 10.4139C42.1752 11.2108 42.4613 12.1479 42.4613 13.1066C42.457 14.3867 41.9439 15.6133 41.0339 16.5187C40.1239 17.4242 38.8908 17.9351 37.6035 17.9401V17.9508Z" fill="#2B2922"/>
<path d="M63.1553 13.9788C63.1938 13.6861 63.2118 13.391 63.2093 13.0958C63.2063 11.1186 62.4547 9.21506 61.1041 7.76408C59.7535 6.3131 57.9029 5.42114 55.9208 5.26576C53.9388 5.11039 51.9705 5.703 50.408 6.92562C48.8454 8.14824 47.8032 9.9112 47.4887 11.8635C47.1743 13.8158 47.6107 15.8143 48.7111 17.4611C49.8114 19.1079 51.4951 20.2822 53.4268 20.7502C55.3585 21.2182 57.3967 20.9457 59.1354 19.9868C60.8742 19.0279 62.1861 17.453 62.8099 15.5756H59.4688C58.9646 16.4261 58.2105 17.1026 57.308 17.5139C56.4055 17.9253 55.3979 18.0517 54.4209 17.8763C53.4439 17.7009 52.5444 17.232 51.8436 16.5328C51.1427 15.8335 50.6741 14.9375 50.5008 13.9654L63.1553 13.9788ZM55.2911 8.2516C56.236 8.25336 57.1601 8.52761 57.9515 9.04111C58.7428 9.55462 59.3674 10.2853 59.7495 11.1447H50.8436C51.2253 10.2872 51.8482 9.5578 52.6374 9.04446C53.4265 8.53112 54.3482 8.25577 55.2911 8.2516Z" fill="#2B2922"/>
<path d="M80.8403 13.9788C80.8774 13.6859 80.8954 13.391 80.8943 13.0958C80.8937 11.1165 80.1435 9.21003 78.7931 7.75594C77.4428 6.30185 75.5912 5.40682 73.6072 5.24906C71.6232 5.09131 69.6522 5.68239 68.0866 6.90462C66.5211 8.12685 65.4758 9.89058 65.1589 11.8447C64.8421 13.7987 65.2769 15.7998 66.3767 17.4495C67.4766 19.0991 69.1608 20.2764 71.0942 20.7468C73.0275 21.2172 75.0681 20.9463 76.8096 19.9881C78.5512 19.0298 79.8659 17.4544 80.4922 15.5756H77.1511C76.6469 16.4261 75.8928 17.1026 74.9903 17.5139C74.0878 17.9253 73.0802 18.0518 72.1032 17.8763C71.1262 17.7009 70.2267 17.232 69.5258 16.5328C68.825 15.8335 68.3564 14.9375 68.1831 13.9654L80.8403 13.9788ZM72.9707 8.25161C73.9142 8.25492 74.8366 8.52989 75.6263 9.04331C76.4161 9.55672 77.0394 10.2866 77.421 11.1447H68.5151C68.897 10.2858 69.5212 9.55532 70.312 9.04185C71.1028 8.52837 72.0263 8.25388 72.9707 8.25161Z" fill="#2B2922"/>
<path d="M21.9777 6.05357C20.2963 4.32253 17.8593 3.05847 15.1174 2.49488C11.6522 1.78099 8.1762 2.30433 5.81748 3.90118C5.75607 3.93933 5.69662 3.98054 5.63936 4.02463H5.62587C5.39417 4.18601 5.17578 4.36549 4.97277 4.56139C4.83783 4.68484 4.7029 4.8083 4.60844 4.92101L4.57605 4.9559C4.38442 5.15627 4.20933 5.37167 4.05249 5.60001L3.94454 5.75567C2.34418 8.09861 1.81522 11.5499 2.53039 15.0013C3.09713 17.728 4.36825 20.1515 6.10895 21.8235C7.59327 23.2512 9.27729 24 10.9451 24C11.3213 24 11.6965 23.9622 12.0651 23.8873C14.7828 23.3291 16.7906 20.8063 17.4006 17.2503C20.9791 16.6411 23.5159 14.6443 24.0719 11.9471C24.4713 9.96384 23.7345 7.85975 21.9777 6.05357ZM12.3809 15.6776C12.0408 15.6078 11.7035 15.5246 11.3688 15.4307L15.5168 11.303C15.6113 11.6331 15.6949 11.9713 15.7651 12.3095C16.0175 13.497 16.1011 14.7139 16.0134 15.9245C14.7969 16.0114 13.5742 15.9283 12.3809 15.6776ZM5.50173 11.5741C4.6921 10.404 4.38984 9.1587 4.63003 7.99126C4.7296 7.50668 4.92003 7.04508 5.19137 6.63058L5.29392 6.48029C5.42609 6.29975 5.56846 6.12682 5.72033 5.96232C5.76621 5.91401 5.81209 5.8657 5.86066 5.82008C5.90924 5.77446 5.95512 5.72615 6.0064 5.68052C6.17632 5.52375 6.35664 5.37849 6.54615 5.24575L6.61901 5.19476L6.6541 5.17329C7.07453 4.89876 7.54334 4.70571 8.03586 4.60433C8.29599 4.55072 8.56095 4.52374 8.8266 4.52382C9.83963 4.54918 10.8211 4.87952 11.6414 5.47119L5.50173 11.5741ZM11.7359 22.4327C10.2192 22.744 8.59181 22.1643 7.14797 20.766C5.63397 19.3034 4.50858 17.159 4.01471 14.7249C3.79998 13.688 3.70939 12.6295 3.74484 11.5714C4.05076 12.1613 4.42776 12.7119 4.86752 13.2112C4.87312 13.2181 4.87945 13.2244 4.88641 13.23L4.9026 13.2515C5.15147 13.5338 5.41543 13.8025 5.69334 14.0566C6.08586 14.4957 6.55602 14.8596 7.0805 15.1301C7.89679 15.6705 8.77009 16.1205 9.68481 16.472C10.4602 16.7697 11.2591 17.0031 12.0732 17.1698C13.0623 17.3735 14.0696 17.4769 15.0796 17.4784C15.3144 17.4784 15.5492 17.4784 15.7813 17.4543C15.2173 20.1515 13.7141 22.0247 11.7359 22.4327ZM22.5579 11.668C22.1504 13.6326 20.2666 15.1274 17.5544 15.6937C17.6145 14.4526 17.5157 13.209 17.2602 11.9928C17.0949 11.1963 16.8648 10.4146 16.572 9.6552C16.5625 9.6249 16.5507 9.5953 16.537 9.56664C16.1908 8.67496 15.7493 7.82288 15.22 7.0251C14.949 6.5052 14.5829 6.04011 14.1405 5.65369C13.8857 5.37748 13.6154 5.11584 13.3308 4.87002L13.3146 4.85124L13.2688 4.81366C12.7694 4.37897 12.2183 4.00673 11.6279 3.70526C12.6928 3.66739 13.7585 3.7575 14.8017 3.97364C17.2494 4.47551 19.4057 5.58391 20.8766 7.10024C22.2772 8.54412 22.8709 10.1624 22.5579 11.668ZM3.80691 1.05637C3.7667 0.962207 3.74603 0.860934 3.74615 0.75863C3.74627 0.656326 3.76717 0.555101 3.8076 0.461028C3.84803 0.366956 3.90715 0.281974 3.98142 0.211185C4.05569 0.140396 4.14358 0.0852574 4.23981 0.0490786C4.33603 0.0128997 4.43862 -0.00357374 4.54141 0.000646573C4.64419 0.00486688 4.74506 0.0296949 4.83796 0.0736391C4.93087 0.117583 5.01388 0.179738 5.08203 0.256375C5.15018 0.333011 5.20206 0.42255 5.23455 0.519616L5.84987 2.14599C5.88542 2.23902 5.90217 2.33811 5.89916 2.4376C5.89615 2.53708 5.87344 2.63499 5.83233 2.72573C5.79122 2.81647 5.73252 2.89826 5.65958 2.96641C5.58664 3.03455 5.5009 3.08773 5.40727 3.12288C5.32132 3.15655 5.22977 3.17385 5.1374 3.17387C4.98249 3.17385 4.83128 3.12681 4.70397 3.03905C4.57666 2.95129 4.47931 2.82699 4.42492 2.68274L3.80691 1.05637ZM2.42784 5.86839C2.33546 5.86837 2.24391 5.85107 2.15796 5.8174L0.522516 5.20549C0.424908 5.17318 0.33487 5.12159 0.257805 5.05382C0.180741 4.98605 0.118239 4.9035 0.0740491 4.81111C0.0298596 4.71873 0.00489405 4.61842 0.000650182 4.5162C-0.00359368 4.41398 0.0129717 4.31197 0.0493525 4.21627C0.0857333 4.12058 0.14118 4.03318 0.212364 3.95932C0.283548 3.88547 0.369003 3.82667 0.463601 3.78647C0.558199 3.74626 0.659989 3.72548 0.762864 3.72536C0.865739 3.72524 0.967578 3.74579 1.06227 3.78578L2.69772 4.39768C2.86542 4.46018 3.0057 4.5793 3.09405 4.73423C3.18239 4.88915 3.21318 5.07002 3.18103 5.24523C3.14888 5.42043 3.05584 5.57883 2.91816 5.69274C2.78048 5.80665 2.60693 5.86882 2.42784 5.86839Z" fill="#2B2922"/>
<path d="M84.9424 20.7419V1.569H86.7667V9.05674H86.818C87.4435 8.17218 88.2747 7.45105 89.2408 6.95479C90.2069 6.45853 91.2793 6.20183 92.3667 6.20657C96.5363 6.20657 100.028 9.36806 100.028 13.6165C100.028 17.8649 96.6928 21.0801 92.3667 21.0801C91.2798 21.0972 90.2053 20.8484 89.2377 20.3556C88.2702 19.8629 87.4393 19.1412 86.818 18.2541H86.7667V20.7419H84.9424ZM92.3424 7.83831C89.2145 7.83831 86.6615 10.455 86.6615 13.6675C86.6519 14.4204 86.7921 15.1678 87.074 15.8666C87.3559 16.5654 87.7741 17.2019 88.3043 17.7394C88.8345 18.277 89.4664 18.7049 90.1636 18.9986C90.8608 19.2924 91.6095 19.4461 92.3667 19.451C95.7563 19.451 98.2041 16.939 98.2041 13.6997C98.2014 10.353 95.7293 7.83831 92.3424 7.83831Z" fill="#2B2922"/>
<path d="M103.804 14.317C103.961 17.1403 106.568 19.451 109.328 19.451C111.541 19.451 113.646 18.1816 114.434 16.1097H116.361C115.789 17.7627 114.644 19.1596 113.132 20.0515C111.62 20.9435 109.839 21.2725 108.105 20.9798C106.372 20.6872 104.8 19.7919 103.668 18.4537C102.537 17.1154 101.92 15.4211 101.928 13.6729C101.928 9.55325 105.342 6.21194 109.328 6.21194C113.601 6.21194 116.804 9.86457 116.804 13.7775C116.804 13.96 116.78 14.1398 116.78 14.3143L103.804 14.317ZM114.934 12.6852C114.413 9.83505 112.146 7.83832 109.334 7.83832C106.676 7.83832 104.303 9.75722 103.809 12.6852H114.934Z" fill="#2B2922"/>
<path d="M130.273 20.7419V12.8409C130.273 9.65255 128.347 7.83831 125.845 7.83831C123.081 7.83831 121.389 9.93703 121.389 12.7094V20.7419H119.565V6.56888H121.389V8.38312H121.44C122.353 7.00902 123.969 6.20657 125.818 6.20657C129.753 6.20657 132.098 8.89035 132.098 12.8409V20.7419H130.273Z" fill="#2B2922"/>
<path d="M136.629 14.317C136.794 17.1403 139.39 19.451 142.153 19.451C144.366 19.451 146.471 18.1816 147.26 16.1097H149.186C148.614 17.7627 147.469 19.1596 145.957 20.0515C144.445 20.9435 142.664 21.2725 140.93 20.9798C139.197 20.6872 137.625 19.7919 136.493 18.4537C135.362 17.1154 134.745 15.4211 134.753 13.6729C134.753 9.55325 138.167 6.21194 142.153 6.21194C146.426 6.21194 149.632 9.86457 149.632 13.7775C149.632 13.96 149.605 14.1398 149.605 14.3143L136.629 14.317ZM147.753 12.6852C147.233 9.83505 144.966 7.83832 142.153 7.83832C139.495 7.83832 137.123 9.75722 136.629 12.6852H147.753Z" fill="#2B2922"/>
<path d="M159.868 20.7419V8.20061H155.229V20.7419H153.407V8.20061H151.192V6.56887H153.407V6.36222C153.407 2.33655 155.882 1.23083 158.878 1.23083V2.91625C156.584 2.91625 155.229 3.72138 155.229 6.25755V6.56887H161.706V20.7419H159.868ZM159.868 4.83247V1.56899H161.692V4.83247H159.868Z" fill="#2B2922"/>
<path d="M179.199 16.5713C177.739 19.4457 175.421 21.0801 172.112 21.0801C167.865 21.0801 164.451 17.9427 164.451 13.5145C164.451 9.62571 167.892 6.20657 172.112 6.20657C175.238 6.20657 178.025 7.94298 179.199 10.8441H177.191C176.714 9.93018 175.992 9.1655 175.105 8.63492C174.217 8.10434 173.199 7.82861 172.164 7.83831C171.387 7.8217 170.614 7.95953 169.892 8.24372C169.169 8.52792 168.511 8.95276 167.955 9.49333C167.4 10.0339 166.958 10.6793 166.657 11.3917C166.356 12.1041 166.201 12.8692 166.201 13.642C166.201 14.4148 166.356 15.1799 166.657 15.8923C166.958 16.6047 167.4 17.2501 167.955 17.7906C168.511 18.3312 169.169 18.756 169.892 19.0402C170.614 19.3244 171.387 19.4623 172.164 19.4457C174.323 19.4457 176.177 18.4607 177.191 16.5713H179.199Z" fill="#2B2922"/>
<path d="M181.933 4.83248V1.569H183.752V4.83248H181.933ZM181.933 20.7419V6.56888H183.752V20.7419H181.933Z" fill="#2B2922"/>
<path d="M186.543 13.7453C186.543 9.57472 189.93 6.20657 193.97 6.20657C195.953 6.20657 197.855 6.99008 199.258 8.38475C200.66 9.77941 201.448 11.671 201.448 13.6433C201.448 15.6157 200.66 17.5072 199.258 18.9019C197.855 20.2966 195.953 21.0801 193.97 21.0801C189.93 21.0801 186.543 17.6851 186.543 13.7453ZM199.624 13.5655C199.624 10.4818 197.122 7.83831 193.97 7.83831C190.869 7.83831 188.367 10.5221 188.367 13.7212C188.367 16.829 190.896 19.4457 193.994 19.4457C197.2 19.451 199.624 16.8048 199.624 13.5655Z" fill="#2B2922"/>
<path d="M209.679 10.0578C209.574 8.68369 208.716 7.82756 207.542 7.82756C207.258 7.82217 206.977 7.8733 206.714 7.97794C206.451 8.08258 206.212 8.2386 206.011 8.43677C205.809 8.63494 205.65 8.87123 205.542 9.13169C205.434 9.39214 205.38 9.67145 205.383 9.95312C205.383 10.9891 206.111 11.7137 207.857 12.2853C211.323 13.4259 212 14.7973 212 16.8182C212 19.4107 210.254 21.0693 207.517 21.0693C205.07 21.0693 203.143 19.3329 203.143 16.6384V16.5337H204.964C204.991 18.4124 205.982 19.4349 207.517 19.4349C209.161 19.4349 210.176 18.5278 210.176 16.8961C210.176 15.5246 209.29 14.7732 207.65 14.1774C205.148 13.2703 203.558 12.5671 203.558 10.1329C203.558 7.8544 205.277 6.19583 207.623 6.19583C208.135 6.18672 208.644 6.28041 209.119 6.47131C209.594 6.6622 210.026 6.94637 210.388 7.30686C210.75 7.66734 211.036 8.09673 211.227 8.56938C211.419 9.04203 211.513 9.54825 211.503 10.0578H209.679Z" fill="#2B2922"/>
</svg>
